<svg xmlns="http://www.w3.org/2000/svg" xmlns:xlink="http://www.w3.org/1999/xlink" version="1.1" x="0px" y="0px" viewBox="0 0 100 100" style="enable-background:new 0 0 100 100;" xml:space="preserve"><g><g><path d="M92,12H76v-2c0-1.1-0.9-2-2-2c-1.1,0-2,0.9-2,2v2H52v-2c0-1.1-0.9-2-2-2c-1.1,0-2,0.9-2,2v2H28v-2c0-1.1-0.9-2-2-2    c-1.1,0-2,0.9-2,2v2H8c-3.3,0-6,2.7-6,6v16c0,1.1,0.9,2,2,2h84c1.1,0,2-0.9,2-2s-0.9-2-2-2H6V18c0-1.1,0.9-2,2-2h16v4    c0,0.2,0.1,0.3,0.1,0.5c-1.2,0.7-2.1,2-2.1,3.5c0,2.2,1.8,4,4,4c2.2,0,4-1.8,4-4c0-1.5-0.9-2.8-2.1-3.5c0-0.2,0.1-0.3,0.1-0.5v-4    h20v4c0,0.2,0.1,0.3,0.1,0.5c-1.2,0.7-2.1,2-2.1,3.5c0,2.2,1.8,4,4,4c2.2,0,4-1.8,4-4c0-1.5-0.9-2.8-2.1-3.5    c0-0.2,0.1-0.3,0.1-0.5v-4h20v4c0,0.2,0.1,0.3,0.1,0.5c-1.2,0.7-2.1,2-2.1,3.5c0,2.2,1.8,4,4,4c2.2,0,4-1.8,4-4    c0-1.5-0.9-2.8-2.1-3.5c0-0.2,0.1-0.3,0.1-0.5v-4h16c1.1,0,2,0.9,2,2v68c0,1.1-0.9,2-2,2H8c-1.1,0-2-0.9-2-2V42c0-1.1-0.9-2-2-2    c-1.1,0-2,0.9-2,2v44c0,3.3,2.7,6,6,6h84c3.3,0,6-2.7,6-6V18C98,14.7,95.3,12,92,12z"/><path d="M20,60h12c1.1,0,2-0.9,2-2V46c0-1.1-0.9-2-2-2H20c-1.1,0-2,0.9-2,2v12C18,59.1,18.9,60,20,60z M22,48h8v8h-8V48z"/><path d="M44,60h12c1.1,0,2-0.9,2-2V46c0-1.1-0.9-2-2-2H44c-1.1,0-2,0.9-2,2v12C42,59.1,42.9,60,44,60z M46,48h8v8h-8V48z"/><path d="M68,60h12c1.1,0,2-0.9,2-2V46c0-1.1-0.9-2-2-2H68c-1.1,0-2,0.9-2,2v12C66,59.1,66.9,60,68,60z M70,48h8v8h-8V48z"/><path d="M18,78c0,1.1,0.9,2,2,2h12c1.1,0,2-0.9,2-2V66c0-1.1-0.9-2-2-2H20c-1.1,0-2,0.9-2,2V78z M22,68h8v8h-8V68z"/><path d="M42,78c0,1.1,0.9,2,2,2h12c1.1,0,2-0.9,2-2V66c0-1.1-0.9-2-2-2H44c-1.1,0-2,0.9-2,2V78z M46,68h8v8h-8V68z"/><path d="M66,78c0,0.3,0.1,0.5,0.2,0.8c0.2,0.5,0.6,0.9,1.1,1.1c0.2,0.1,0.5,0.2,0.8,0.2h12c1.1,0,2-0.9,2-2V66    c0-0.3-0.1-0.5-0.2-0.8c-0.2-0.5-0.6-0.9-1.1-1.1C80.5,64.1,80.3,64,80,64H68c-1.1,0-2,0.9-2,2V78z M72.8,76l5.2-5.2V76H72.8z     M75.2,68L70,73.2V68H75.2z"/></g></g></svg>
