<svg xmlns="http://www.w3.org/2000/svg" xmlns:xlink="http://www.w3.org/1999/xlink" version="1.1" x="0px" y="0px" viewBox="0 0 100 100" style="enable-background:new 0 0 100 100;" xml:space="preserve"><g><g><path d="M60,28c0-5.5-4.5-10-10-10c-5.5,0-10,4.5-10,10s4.5,10,10,10C55.5,38,60,33.5,60,28z M44,28c0-3.3,2.7-6,6-6    c3.3,0,6,2.7,6,6s-2.7,6-6,6C46.7,34,44,31.3,44,28z"/><path d="M50,82c0.7,0,1.3-0.3,1.6-0.9c1-1.4,24.4-34.9,24.4-54.3C76,13.1,64.3,2,50,2S24,13.1,24,26.8c0,19.4,23.4,52.9,24.4,54.3    C48.7,81.7,49.3,82,50,82z M50,6c12.1,0,22,9.3,22,20.8c0,15.3-16.6,41.6-22,49.6c-5.4-8.1-22-34.3-22-49.6C28,15.3,37.9,6,50,6z"/><path d="M68.4,70.1c-1-0.4-2.2,0.1-2.6,1.1c-0.4,1,0.1,2.2,1.1,2.6c5.7,2.2,9,5.5,9,8.6C76,89.3,62.3,94,50,94    c-12.3,0-26-4.7-26-11.5c0-3.2,3.4-6.4,9-8.6c1-0.4,1.5-1.6,1.1-2.6c-0.4-1-1.6-1.5-2.6-1.1C24.2,73,20,77.5,20,82.5    C20,91.2,33.2,98,50,98c16.8,0,30-6.8,30-15.5C80,77.5,75.8,73,68.4,70.1z"/></g></g></svg>
