<svg xmlns="http://www.w3.org/2000/svg" xmlns:xlink="http://www.w3.org/1999/xlink" version="1.1" x="0px" y="0px" viewBox="0 0 100 100" enable-background="new 0 0 100 100" xml:space="preserve"><path d="M49.5,22.5c-9.926,0-18,8.075-18,18s8.074,18,18,18s18-8.075,18-18S59.426,22.5,49.5,22.5z M49.5,50.5  c-5.514,0-10-4.486-10-10s4.486-10,10-10s10,4.486,10,10S55.014,50.5,49.5,50.5z M49.5,2.5c-20.953,0-38,16.884-38,37.637  c0,31.313,34.191,56.539,35.646,57.598c0.703,0.51,1.527,0.766,2.354,0.766s1.65-0.256,2.354-0.766  C53.309,96.676,87.5,71.449,87.5,40.137C87.5,19.384,70.453,2.5,49.5,2.5z M49.498,89.416C42.047,83.332,19.5,63.027,19.5,40.137  c0-16.342,13.457-29.637,30-29.637s30,13.295,30,29.637C79.5,62.98,56.943,83.324,49.498,89.416z"/></svg>
